<svg width="86" height="86" viewBox="0 0 86 86" fill="none" xmlns="http://www.w3.org/2000/svg">
<path d="M43 86C66.7482 86 86 66.7482 86 43C86 19.2518 66.7482 0 43 0C19.2518 0 0 19.2518 0 43C0 66.7482 19.2518 86 43 86Z" fill="black"/>
<path d="M50.9 21.85L51.82 24.84C52.84 28.15 55.92 30.4 59.39 30.35L62.57 30.3C70.15 30.19 73.42 39.85 67.33 44.37L64.03 46.82C61.37 48.7901 60.25 52.22 61.22 55.39L62.49 59.5201C64.7 66.7001 56.5 72.5501 50.43 68.1201L47.46 65.95C44.7 63.94 40.95 63.95 38.21 65.99L35.57 67.95C29.44 72.5 21.1 66.4601 23.51 59.2201L24.58 56C25.65 52.78 24.52 49.23 21.77 47.23L18.68 44.98C12.62 40.56 15.67 30.97 23.17 30.87L27.46 30.81C30.78 30.76 33.71 28.62 34.75 25.47L36.01 21.68C38.41 14.48 48.64 14.59 50.88 21.85H50.9Z" fill="#557BFF"/>
<path d="M34.73 41.4C35.8788 41.4 36.81 40.4687 36.81 39.32C36.81 38.1712 35.8788 37.24 34.73 37.24C33.5812 37.24 32.65 38.1712 32.65 39.32C32.65 40.4687 33.5812 41.4 34.73 41.4Z" fill="black"/>
<path d="M51.27 41.4C52.4188 41.4 53.35 40.4687 53.35 39.32C53.35 38.1712 52.4188 37.24 51.27 37.24C50.1213 37.24 49.19 38.1712 49.19 39.32C49.19 40.4687 50.1213 41.4 51.27 41.4Z" fill="black"/>
<path d="M40.1 45.52C40.1 47.8 41.67 48.76 43.05 48.76" stroke="black" stroke-width="1.5" stroke-miterlimit="10" stroke-linecap="round"/>
<path d="M45.8 45.52C45.8 47.8 44.45 48.76 43.06 48.76" stroke="black" stroke-width="1.5" stroke-miterlimit="10" stroke-linecap="round"/>
</svg>
