<svg width="86" height="86" viewBox="0 0 86 86" fill="none" xmlns="http://www.w3.org/2000/svg">
<path d="M43 86C66.7482 86 86 66.7482 86 43C86 19.2518 66.7482 0 43 0C19.2518 0 0 19.2518 0 43C0 66.7482 19.2518 86 43 86Z" fill="black"/>
<path d="M50.87 21.7501L51.83 24.8801C52.85 28.1801 55.92 30.4101 59.37 30.3601L62.69 30.3101C70.23 30.2001 73.49 39.8201 67.43 44.3201L64.02 46.8501C61.38 48.8101 60.26 52.2301 61.23 55.3701L62.54 59.6301C64.74 66.7701 56.57 72.6001 50.54 68.1901L47.46 65.9401C44.71 63.9401 40.98 63.9501 38.25 65.9801L35.5 68.0301C29.4 72.5601 21.1 66.5401 23.5 59.3401L24.62 55.9801C25.69 52.7701 24.56 49.2401 21.83 47.2501L18.63 44.9201C12.6 40.5201 15.64 30.9801 23.1 30.8701L27.52 30.8101C30.82 30.7601 33.74 28.6301 34.78 25.5001L36.09 21.5801C38.48 14.4101 48.66 14.5301 50.89 21.7501H50.87Z" fill="#7DBE73"/>
<path d="M40.15 43.6301C40.15 45.9101 41.72 46.8701 43.1 46.8701" stroke="black" stroke-width="1.5" stroke-miterlimit="10" stroke-linecap="round"/>
<path d="M45.85 43.6301C45.85 45.9101 44.5 46.8701 43.11 46.8701" stroke="black" stroke-width="1.5" stroke-miterlimit="10" stroke-linecap="round"/>
<path d="M34.26 37.77H37.76" stroke="black" stroke-width="2" stroke-miterlimit="10"/>
<path d="M48.24 37.77H51.74" stroke="black" stroke-width="2" stroke-miterlimit="10"/>
</svg>
