<svg width="86" height="86" viewBox="0 0 86 86" fill="none" xmlns="http://www.w3.org/2000/svg">
<g clip-path="url(#clip0_3914_10712)">
<g clip-path="url(#clip1_3914_10712)">
<path d="M43.11 86C66.8582 86 86.11 66.7482 86.11 43C86.11 19.2518 66.8582 0 43.11 0C19.3618 0 0.110001 19.2518 0.110001 43C0.110001 66.7482 19.3618 86 43.11 86Z" fill="black"/>
<path d="M50.97 19.5101L51.93 22.6401C52.95 25.9401 56.02 28.1701 59.47 28.1201L62.79 28.0701C70.33 27.9601 73.59 37.5801 67.53 42.0801L64.12 44.6101C61.48 46.5701 60.36 49.9901 61.33 53.1301L62.64 57.3901C64.84 64.5301 56.67 70.3601 50.64 65.9501L47.56 63.7001C44.81 61.7001 41.08 61.7101 38.35 63.7401L35.6 65.7901C29.5 70.3201 21.2 64.3001 23.6 57.1001L24.72 53.7401C25.79 50.5301 24.66 47.0001 21.93 45.0101L18.73 42.6801C12.7 38.2801 15.74 28.7401 23.2 28.6301L27.62 28.5701C30.92 28.5201 33.84 26.3901 34.88 23.2601L36.19 19.3401C38.58 12.1701 48.76 12.2901 50.99 19.5101H50.97Z" fill="#FEAC58"/>
<path d="M34.36 36.3101H37.86" stroke="black" stroke-width="2" stroke-miterlimit="10"/>
<path d="M48.35 36.3101H51.85" stroke="black" stroke-width="2" stroke-miterlimit="10"/>
<path d="M40.15 41.3799C40.15 43.6599 41.72 44.6199 43.1 44.6199" stroke="black" stroke-width="1.5" stroke-miterlimit="10" stroke-linecap="round"/>
<path d="M45.85 41.3799C45.85 43.6599 44.5 44.6199 43.11 44.6199" stroke="black" stroke-width="1.5" stroke-miterlimit="10" stroke-linecap="round"/>
</g>
</g>
<defs>
<clipPath id="clip0_3914_10712">
<rect width="86" height="86" fill="white"/>
</clipPath>
<clipPath id="clip1_3914_10712">
<rect width="86" height="86" fill="white"/>
</clipPath>
</defs>
</svg>
