<svg width="201" height="262" viewBox="0 0 201 262" fill="none" xmlns="http://www.w3.org/2000/svg">
<path d="M50.8421 0H170.528C179.177 0 187.851 1.46012 193.907 7.94362C199.872 14.3467 201 23.2147 201 31.4798V189.548C201 196.822 200.066 203.976 196.462 209.762C194.382 213.1 191.47 215.798 188.033 217.572V229.735C188.033 238.657 186.633 247.619 180.37 253.874C174.171 260.063 165.587 261.215 157.586 261.215H19.4619C14.3033 261.215 9.35603 259.098 5.70835 255.33C2.06067 251.562 0.0114299 246.451 0.0114299 241.122V50.4614C-0.0274712 43.7904 -0.0663707 35.4583 1.69714 27.863C3.86263 18.5932 8.85493 9.60468 19.4749 4.01869C23.8577 1.71464 28.474 0.803739 33.4015 0.401869C38.1344 -3.7427e-07 43.9047 0 50.8421 0ZM19.4619 241.122H157.586C164.679 241.122 166.443 239.836 166.845 239.434C167.169 239.112 168.582 237.358 168.582 229.735V221.028H38.9124C33.7538 221.028 28.8065 223.145 25.1589 226.913C21.5112 230.682 19.4619 235.793 19.4619 241.122Z" fill="#F9AEDA"/>
</svg>
