<svg width="86" height="86" viewBox="0 0 86 86" fill="none" xmlns="http://www.w3.org/2000/svg">
<g clip-path="url(#clip0_3914_10616)">
<path d="M43 86C66.7482 86 86 66.7482 86 43C86 19.2518 66.7482 0 43 0C19.2518 0 0 19.2518 0 43C0 66.7482 19.2518 86 43 86Z" fill="black"/>
<path d="M51.41 19.56L52.33 22.55C53.35 25.86 56.43 28.11 59.9 28.06L63.08 28.01C70.66 27.9 73.93 37.56 67.84 42.08L64.54 44.53C61.88 46.5 60.76 49.93 61.73 53.1L63 57.23C65.21 64.41 57.01 70.26 50.94 65.83L47.97 63.66C45.21 61.65 41.46 61.66 38.72 63.7L36.08 65.66C29.95 70.21 21.61 64.17 24.02 56.93L25.09 53.71C26.16 50.49 25.03 46.94 22.28 44.94L19.19 42.69C13.13 38.27 16.18 28.68 23.68 28.58L27.97 28.52C31.29 28.47 34.22 26.33 35.26 23.18L36.52 19.39C38.92 12.19 49.15 12.3 51.39 19.56H51.41Z" fill="#FE93EB" stroke="black" stroke-width="0.25" stroke-miterlimit="10"/>
<path d="M38.51 40.1C38.57 38.31 37.5 36.82 36.11 36.78" stroke="black" stroke-width="1.5" stroke-miterlimit="10"/>
<path d="M33.49 39.9201C33.55 38.1301 34.72 36.7201 36.11 36.7701" stroke="black" stroke-width="1.5" stroke-miterlimit="10"/>
<path d="M52.51 40.1399C52.51 38.3499 51.39 36.8999 50 36.8999" stroke="black" stroke-width="1.5" stroke-miterlimit="10"/>
<path d="M47.48 40.1399C47.48 38.3499 48.6 36.8999 49.99 36.8999" stroke="black" stroke-width="1.5" stroke-miterlimit="10"/>
<path d="M39.86 44.6299C39.86 46.9099 41.43 47.8699 42.81 47.8699" stroke="black" stroke-width="1.5" stroke-miterlimit="10" stroke-linecap="round"/>
<path d="M45.56 44.6299C45.56 46.9099 44.21 47.8699 42.82 47.8699" stroke="black" stroke-width="1.5" stroke-miterlimit="10" stroke-linecap="round"/>
</g>
<defs>
<clipPath id="clip0_3914_10616">
<rect width="86" height="86" fill="white"/>
</clipPath>
</defs>
</svg>
