<svg width="86" height="86" viewBox="0 0 86 86" fill="none" xmlns="http://www.w3.org/2000/svg">
<g clip-path="url(#clip0_5012_12419)">
<g clip-path="url(#clip1_5012_12419)">
<path d="M43.11 85.8599C66.8582 85.8599 86.11 66.6081 86.11 42.8599C86.11 19.1116 66.8582 -0.140137 43.11 -0.140137C19.3617 -0.140137 0.109985 19.1116 0.109985 42.8599C0.109985 66.6081 19.3617 85.8599 43.11 85.8599Z" fill="black"/>
<path d="M50.88 19.23L51.83 22.32C52.85 25.62 55.92 27.86 59.38 27.81L62.66 27.76C70.21 27.65 73.47 37.28 67.41 41.79L64.03 44.3C61.38 46.27 60.26 49.69 61.23 52.84L62.53 57.06C64.73 64.21 56.56 70.05 50.51 65.64L47.46 63.42C44.71 61.41 40.97 61.43 38.24 63.46L35.52 65.48C29.41 70.02 21.09 63.99 23.5 56.77L24.61 53.45C25.68 50.24 24.55 46.7 21.81 44.7L18.65 42.39C12.61 37.99 15.65 28.43 23.12 28.32L27.5 28.26C30.81 28.21 33.73 26.08 34.77 22.94L36.06 19.06C38.45 11.88 48.65 12 50.88 19.23Z" fill="#8D79FD"/>
<path d="M46.46 39.71H51.48" stroke="black" stroke-width="1.5" stroke-miterlimit="10"/>
<path d="M36.59 41.7899C37.7388 41.7899 38.67 40.8586 38.67 39.7099C38.67 38.5611 37.7388 37.6299 36.59 37.6299C35.4413 37.6299 34.51 38.5611 34.51 39.7099C34.51 40.8586 35.4413 41.7899 36.59 41.7899Z" fill="black"/>
<path d="M40.16 44.3901C40.16 46.6701 41.73 47.6301 43.11 47.6301" stroke="black" stroke-width="1.5" stroke-miterlimit="10" stroke-linecap="round"/>
<path d="M45.85 44.3901C45.85 46.6701 44.5 47.6301 43.11 47.6301" stroke="black" stroke-width="1.5" stroke-miterlimit="10" stroke-linecap="round"/>
</g>
</g>
<defs>
<clipPath id="clip0_5012_12419">
<rect width="86" height="86" fill="white"/>
</clipPath>
<clipPath id="clip1_5012_12419">
<rect width="86" height="86" fill="white"/>
</clipPath>
</defs>
</svg>
